<svg width="20" height="24" viewBox="0 0 20 24" fill="none" xmlns="http://www.w3.org/2000/svg">
<path fill-rule="evenodd" clip-rule="evenodd" d="M11.674 0.829279C12.0949 1.25889 12.0949 1.9554 11.674 2.38501L10.2707 3.81713C15.4259 4.05027 19.5353 8.38931 19.5353 13.7079C19.5353 19.1758 15.1918 23.6084 9.83381 23.6084C4.47583 23.6084 0.132324 19.1758 0.132324 13.7079C0.132324 13.1003 0.614941 12.6078 1.21027 12.6078C1.80559 12.6078 2.28821 13.1003 2.28821 13.7079C2.28821 17.9607 5.66649 21.4083 9.83381 21.4083C14.0011 21.4083 17.3794 17.9607 17.3794 13.7079C17.3794 9.61276 14.2471 6.26426 10.2941 6.0215L11.674 7.42967C12.0949 7.85928 12.0949 8.55579 11.674 8.9854C11.253 9.415 10.5705 9.415 10.1495 8.9854L6.9157 5.68521C6.71355 5.4789 6.59998 5.1991 6.59998 4.90734C6.59998 4.61558 6.71355 4.33578 6.9157 4.12947L10.1495 0.829279C10.5705 0.39968 11.253 0.39968 11.674 0.829279Z" fill="#EF313B"/>
</svg>
